<?xml version="1.0" encoding="UTF-8"?>
<svg width="259px" height="59px" viewBox="0 0 259 59" version="1.1" xmlns="http://www.w3.org/2000/svg" xmlns:xlink="http://www.w3.org/1999/xlink">
    <title>编组 2</title>
    <g id="页面-1" stroke="none" stroke-width="1" fill="none" fill-rule="evenodd">
        <g id="ALL" transform="translate(-5186, -2829)" fill-rule="nonzero">
            <g id="编组-2" transform="translate(5186, 2829)">
                <g id="Apex-Hotel-Furniture" transform="translate(73.8379, 3.0842)">
                    <path d="M19.0662487,22.2257985 L9.69654934,22.2257985 L8.40730776,26.6201149 L0,26.6201149 L10.005241,0 L18.975457,0 L28.980698,26.6201149 L20.3736486,26.6201149 L19.0662487,22.2257985 Z M17.3412072,16.4696072 L14.3995574,6.9001662 L11.4760659,16.4696072 L17.3412072,16.4696072 Z" id="形状" fill="#D5975A"></path>
                    <path d="M31.1596979,33.956081 L31.1596979,7.33596617 L38.0780224,7.33596617 L38.0780224,10.1868243 C39.0343612,8.98837439 39.912014,8.17730222 40.7109806,7.75360781 C41.7883749,7.18464673 42.9807721,6.9001662 44.288172,6.9001662 C46.8666551,6.9001662 48.8610453,7.88676891 50.2713424,9.85997433 C51.6816395,11.8331798 52.3867881,14.272449 52.3867881,17.1777822 C52.3867881,20.3857542 51.6180854,22.8341026 50.0806799,24.5228275 C48.5432745,26.2115524 46.6003329,27.0559148 44.2518553,27.0559148 C43.1139332,27.0559148 42.0758819,26.862226 41.1377014,26.4748482 C40.1995209,26.0874704 39.3612112,25.5124566 38.6227724,24.7498067 L38.6227724,33.956081 L31.1596979,33.956081 Z M38.5682974,17.0325155 C38.5682974,18.5578154 38.8890946,19.6896848 39.530689,20.4281236 C40.1722834,21.1665625 40.9833555,21.5357819 41.9639055,21.5357819 C42.8233999,21.5357819 43.5436804,21.1816944 44.124747,20.4735194 C44.7058136,19.7653445 44.9963469,18.5638682 44.9963469,16.8690905 C44.9963469,15.307474 44.6937081,14.1604726 44.0884303,13.4280866 C43.4831526,12.6957005 42.7447138,12.3295075 41.8731138,12.3295075 C40.9288806,12.3295075 40.1420195,12.6987269 39.5125306,13.4371658 C38.8830418,14.1756046 38.5682974,15.3740545 38.5682974,17.0325155 Z" id="形状" fill="#D5975A"></path>
                    <path d="M77.3363364,18.8120321 L62.5191374,18.8120321 C62.6522985,19.9983764 62.9730957,20.8820819 63.481529,21.4631485 C64.1957567,22.2984318 65.1278845,22.7160735 66.2779122,22.7160735 C67.0042454,22.7160735 67.6942621,22.5344901 68.347962,22.1713235 C68.7474453,21.941318 69.1771925,21.5357819 69.6372036,20.9547152 L76.9186948,21.6265735 C75.8049837,23.5634623 74.4612672,24.9525747 72.887545,25.7939107 C71.3138229,26.6352468 69.056137,27.0559148 66.1144872,27.0559148 C63.5602151,27.0559148 61.550693,26.6957746 60.0859209,25.9754941 C58.6211488,25.2552136 57.4075669,24.1112386 56.4451753,22.5435693 C55.4827837,20.9759 55.0015879,19.1328293 55.0015879,17.0143572 C55.0015879,14.000074 55.9670059,11.5608048 57.8978419,9.69654934 C59.8286779,7.83229391 62.4949263,6.9001662 65.8965872,6.9001662 C68.6566537,6.9001662 70.8356535,7.31780784 72.4335867,8.15309111 C74.03152,8.98837439 75.2481282,10.1989299 76.0834115,11.7847575 C76.9186948,13.3705852 77.3363364,15.4345823 77.3363364,17.9767488 L77.3363364,18.8120321 Z M69.8187869,15.2711573 C69.6735203,13.8427018 69.2891689,12.8197825 68.6657328,12.2023992 C68.0422968,11.5850159 67.2221454,11.2763242 66.2052788,11.2763242 C65.03104,11.2763242 64.0928595,11.7423881 63.3907374,12.6745158 C62.9428318,13.2555824 62.6583513,14.1211296 62.5372957,15.2711573 L69.8187869,15.2711573 Z" id="形状" fill="#D5975A"></path>
                    <polygon id="路径" fill="#D5975A" points="79.061378 7.33596617 87.8318524 7.33596617 90.9006105 12.7108325 94.4596436 7.33596617 102.612735 7.33596617 96.0394185 16.5240822 103.084851 26.6201149 94.4596436 26.6201149 90.9006105 20.4099653 86.7060358 26.6201149 78.6982113 26.6201149 85.7073275 16.5240822"></polygon>
                    <polygon id="路径" fill="#111111" points="1.62582282 39.1481601 6.57943588 39.1481601 6.57943588 44.7578809 11.9923243 44.7578809 11.9923243 39.1481601 16.9678076 39.1481601 16.9678076 55.179058 11.9923243 55.179058 11.9923243 48.694527 6.57943588 48.694527 6.57943588 55.179058 1.62582282 55.179058"></polygon>
                    <path d="M19.4172764,49.4053104 C19.4172764,47.6338196 20.0150634,46.17398 21.2106374,45.0257915 C22.4062114,43.8776031 24.0209653,43.3035088 26.0548992,43.3035088 C28.3804364,43.3035088 30.137347,43.9778417 31.3256309,45.3265076 C32.2806321,46.4127303 32.7581327,47.750461 32.7581327,49.3396996 C32.7581327,51.1257705 32.1658133,52.5892552 30.9811744,53.7301536 C29.7965355,54.8710519 28.1580888,55.4415011 26.0658343,55.4415011 C24.1995724,55.4415011 22.6905247,54.9676456 21.5386912,54.0199345 C20.1244146,52.8462307 19.4172764,51.3080227 19.4172764,49.4053104 Z M23.8788086,49.3943752 C23.8788086,50.4295674 24.0883986,51.1950263 24.5075785,51.6907521 C24.9267584,52.186478 25.4534671,52.4343409 26.0877045,52.4343409 C26.7292321,52.4343409 27.2559407,52.190123 27.6678306,51.7016873 C28.0797204,51.2132516 28.2856653,50.4295674 28.2856653,49.3506347 C28.2856653,48.3446029 28.0778979,47.5955467 27.662363,47.1034659 C27.2468281,46.6113851 26.7328771,46.3653447 26.1205099,46.3653447 C25.4716923,46.3653447 24.935871,46.6150302 24.5130461,47.114401 C24.0902211,47.6137719 23.8788086,48.3737633 23.8788086,49.3943752 Z" id="形状" fill="#111111"></path>
                    <path d="M40.2705658,39.1481601 L40.2705658,43.5659519 L42.7200345,43.5659519 L42.7200345,46.813685 L40.2705658,46.813685 L40.2705658,50.9362283 C40.2705658,51.4319541 40.3179513,51.760008 40.4127224,51.9203898 C40.5585241,52.1682527 40.8136771,52.2921842 41.1781814,52.2921842 C41.5062353,52.2921842 41.9655106,52.1974131 42.5560076,52.0078709 L42.8840614,55.0806419 C41.7832585,55.3212147 40.7553565,55.4415011 39.8003553,55.4415011 C38.6922623,55.4415011 37.8757727,55.2993444 37.3508865,55.0150311 C36.8260004,54.7307178 36.4378033,54.2987802 36.1862954,53.7192184 C35.9347875,53.1396566 35.8090335,52.2010581 35.8090335,50.9034229 L35.8090335,46.813685 L34.1687643,46.813685 L34.1687643,43.5659519 L35.8090335,43.5659519 L35.8090335,41.4336019 L40.2705658,39.1481601 Z" id="路径" fill="#111111"></path>
                    <path d="M57.7339655,50.4769529 L48.8109009,50.4769529 C48.8910918,51.1913813 49.0842791,51.7235575 49.3904627,52.0734816 C49.8205777,52.5764975 50.3819143,52.8280055 51.0744724,52.8280055 C51.5118775,52.8280055 51.9274124,52.7186542 52.321077,52.4999516 C52.5616498,52.36144 52.8204479,52.1172221 53.0974711,51.767298 L57.4824575,52.1718978 C56.8117697,53.3383115 56.0025702,54.1748488 55.0548591,54.6815097 C54.1071479,55.1881706 52.747547,55.4415011 50.9760563,55.4415011 C49.4378482,55.4415011 48.227694,55.2246211 47.3455937,54.790861 C46.4634934,54.3571009 45.7326623,53.6681878 45.1531005,52.7241218 C44.5735387,51.7800557 44.2837578,50.6701402 44.2837578,49.3943752 C44.2837578,47.579144 44.8651421,46.1101917 46.0279108,44.9875186 C47.1906794,43.8648454 48.7963207,43.3035088 50.8448347,43.3035088 C52.5069742,43.3035088 53.8191896,43.5550168 54.7814809,44.0580327 C55.7437721,44.5610486 56.4764257,45.2900571 56.9794416,46.2450583 C57.4824575,47.2000595 57.7339655,48.4430191 57.7339655,49.973937 L57.7339655,50.4769529 Z M53.2068224,48.3446029 C53.1193414,47.4843728 52.8878812,46.8683606 52.5124418,46.4965663 C52.1370024,46.1247719 51.6430991,45.9388747 51.0307319,45.9388747 C50.3235936,45.9388747 49.758612,46.219543 49.335787,46.7808796 C49.0660539,47.1308037 48.8947369,47.6520448 48.821836,48.3446029 L53.2068224,48.3446029 Z" id="形状" fill="#111111"></path>
                    <polygon id="路径" fill="#111111" points="59.9319262 39.1481601 64.3934585 39.1481601 64.3934585 55.179058 59.9319262 55.179058"></polygon>
                    <polygon id="路径" fill="#111111" points="75.0224031 39.1481601 87.2697466 39.1481601 87.2697466 42.5927255 79.9978864 42.5927255 79.9978864 45.3921183 86.2090392 45.3921183 86.2090392 48.6289163 79.9978864 48.6289163 79.9978864 55.179058 75.0224031 55.179058"></polygon>
                    <path d="M101.879078,55.179058 L97.7237292,55.179058 L97.7237292,53.298216 C97.1040719,54.070965 96.4789471,54.6213665 95.8483547,54.9494203 C95.2177623,55.2774742 94.4431907,55.4415011 93.52464,55.4415011 C92.2999056,55.4415011 91.3394368,55.0751743 90.6432337,54.3425207 C89.9470305,53.6098671 89.5989289,52.4817264 89.5989289,50.9580986 L89.5989289,43.5659519 L94.0713964,43.5659519 L94.0713964,49.9520668 C94.0713964,50.6810753 94.2062629,51.1986714 94.4759961,51.504855 C94.7457293,51.8110386 95.1248137,51.9641304 95.6132494,51.9641304 C96.1454257,51.9641304 96.5810083,51.760008 96.9199973,51.3517632 C97.2589862,50.9435184 97.4284807,50.2108648 97.4284807,49.1538024 L97.4284807,43.5659519 L101.879078,43.5659519 L101.879078,55.179058 Z" id="路径" fill="#111111"></path>
                    <path d="M104.623795,43.5659519 L108.790079,43.5659519 L108.790079,45.4686642 C109.191034,44.6448846 109.604746,44.0780804 110.031216,43.7682518 C110.457686,43.4584232 110.984395,43.3035088 111.611342,43.3035088 C112.26745,43.3035088 112.985523,43.5076312 113.765562,43.915876 L112.387736,47.0870632 C111.86285,46.8683606 111.447315,46.7590093 111.141131,46.7590093 C110.557925,46.7590093 110.105939,46.9995822 109.785176,47.4807278 C109.3259,48.1587058 109.096262,49.4271806 109.096262,51.2861524 L109.096262,55.179058 L104.623795,55.179058 L104.623795,43.5659519 Z" id="路径" fill="#111111"></path>
                    <path d="M114.520086,43.5659519 L118.6645,43.5659519 L118.6645,45.4577291 C119.284157,44.68498 119.911104,44.1327561 120.545342,43.8010572 C121.179579,43.4693583 121.952328,43.3035088 122.863589,43.3035088 C124.095613,43.3035088 125.059727,43.6698356 125.75593,44.4024892 C126.452133,45.1351428 126.800235,46.2669286 126.800235,47.7978465 L126.800235,55.179058 L122.327768,55.179058 L122.327768,48.7929432 C122.327768,48.0639346 122.192901,47.5481611 121.923168,47.2456225 C121.653435,46.943084 121.27435,46.7918147 120.785914,46.7918147 C120.246448,46.7918147 119.809043,46.9959371 119.473699,47.4041819 C119.138355,47.8124267 118.970683,48.5450803 118.970683,49.6021427 L118.970683,55.179058 L114.520086,55.179058 L114.520086,43.5659519 Z" id="路径" fill="#111111"></path>
                    <path d="M129.621498,39.1481601 L134.072095,39.1481601 L134.072095,42.1771906 L129.621498,42.1771906 L129.621498,39.1481601 Z M129.621498,43.5659519 L134.072095,43.5659519 L134.072095,55.179058 L129.621498,55.179058 L129.621498,43.5659519 Z" id="形状" fill="#111111"></path>
                    <path d="M142.284376,39.1481601 L142.284376,43.5659519 L144.733845,43.5659519 L144.733845,46.813685 L142.284376,46.813685 L142.284376,50.9362283 C142.284376,51.4319541 142.331762,51.760008 142.426533,51.9203898 C142.572335,52.1682527 142.827488,52.2921842 143.191992,52.2921842 C143.520046,52.2921842 143.979321,52.1974131 144.569818,52.0078709 L144.897872,55.0806419 C143.797069,55.3212147 142.769167,55.4415011 141.814166,55.4415011 C140.706073,55.4415011 139.889583,55.2993444 139.364697,55.0150311 C138.839811,54.7307178 138.451614,54.2987802 138.200106,53.7192184 C137.948598,53.1396566 137.822844,52.2010581 137.822844,50.9034229 L137.822844,46.813685 L136.182575,46.813685 L136.182575,43.5659519 L137.822844,43.5659519 L137.822844,41.4336019 L142.284376,39.1481601 Z" id="路径" fill="#111111"></path>
                    <path d="M159.091668,55.179058 L154.93632,55.179058 L154.93632,53.298216 C154.316663,54.070965 153.691538,54.6213665 153.060945,54.9494203 C152.430353,55.2774742 151.655781,55.4415011 150.737231,55.4415011 C149.512496,55.4415011 148.552027,55.0751743 147.855824,54.3425207 C147.159621,53.6098671 146.81152,52.4817264 146.81152,50.9580986 L146.81152,43.5659519 L151.283987,43.5659519 L151.283987,49.9520668 C151.283987,50.6810753 151.418854,51.1986714 151.688587,51.504855 C151.95832,51.8110386 152.337404,51.9641304 152.82584,51.9641304 C153.358016,51.9641304 153.793599,51.760008 154.132588,51.3517632 C154.471577,50.9435184 154.641071,50.2108648 154.641071,49.1538024 L154.641071,43.5659519 L159.091668,43.5659519 L159.091668,55.179058 Z" id="路径" fill="#111111"></path>
                    <path d="M161.836386,43.5659519 L166.002669,43.5659519 L166.002669,45.4686642 C166.403624,44.6448846 166.817337,44.0780804 167.243807,43.7682518 C167.670277,43.4584232 168.196985,43.3035088 168.823933,43.3035088 C169.48004,43.3035088 170.198114,43.5076312 170.978153,43.915876 L169.600327,47.0870632 C169.07544,46.8683606 168.659906,46.7590093 168.353722,46.7590093 C167.770515,46.7590093 167.31853,46.9995822 166.997766,47.4807278 C166.538491,48.1587058 166.308853,49.4271806 166.308853,51.2861524 L166.308853,55.179058 L161.836386,55.179058 L161.836386,43.5659519 Z" id="路径" fill="#111111"></path>
                    <path d="M184.625193,50.4769529 L175.702128,50.4769529 C175.782319,51.1913813 175.975506,51.7235575 176.28169,52.0734816 C176.711805,52.5764975 177.273142,52.8280055 177.9657,52.8280055 C178.403105,52.8280055 178.81864,52.7186542 179.212304,52.4999516 C179.452877,52.36144 179.711675,52.1172221 179.988698,51.767298 L184.373685,52.1718978 C183.702997,53.3383115 182.893797,54.1748488 181.946086,54.6815097 C180.998375,55.1881706 179.638774,55.4415011 177.867284,55.4415011 C176.329076,55.4415011 175.118921,55.2246211 174.236821,54.790861 C173.354721,54.3571009 172.62389,53.6681878 172.044328,52.7241218 C171.464766,51.7800557 171.174985,50.6701402 171.174985,49.3943752 C171.174985,47.579144 171.756369,46.1101917 172.919138,44.9875186 C174.081907,43.8648454 175.687548,43.3035088 177.736062,43.3035088 C179.398201,43.3035088 180.710417,43.5550168 181.672708,44.0580327 C182.634999,44.5610486 183.367653,45.2900571 183.870669,46.2450583 C184.373685,47.2000595 184.625193,48.4430191 184.625193,49.973937 L184.625193,50.4769529 Z M180.09805,48.3446029 C180.010569,47.4843728 179.779108,46.8683606 179.403669,46.4965663 C179.02823,46.1247719 178.534326,45.9388747 177.921959,45.9388747 C177.214821,45.9388747 176.649839,46.219543 176.227014,46.7808796 C175.957281,47.1308037 175.785964,47.6520448 175.713063,48.3446029 L180.09805,48.3446029 Z" id="形状" fill="#111111"></path>
                </g>
                <path d="M53.8969218,2.54218194e-05 C55.9137525,-0.00567760542 57.8931431,0.948761008 59.0838221,2.26144657 C59.8280992,3.08207964 60.2814953,4.73459855 60.4440102,7.21920788 L60.458616,29.9444629 L59.9015395,29.9074311 C58.8001409,29.833572 55.7802434,28.9597441 53.7753441,28.1227434 C50.5450001,26.793281 47.376782,24.6761254 44.8024633,22.1280914 C41.4731703,18.8171204 39.1092982,15.0382391 37.6736126,10.6930371 C36.8816095,8.30520148 36.4979508,6.40962297 36.2008982,3.49229388 C36.1019493,2.48302364 35.9904517,1.62126684 35.953423,1.59671537 C35.9161885,1.55988816 35.7429764,1.86759998 35.5697643,2.26144657 C35.4582667,2.49775452 35.2844375,2.88034835 35.1071111,3.26826167 L35.0480709,3.3975661 C34.9495333,3.61259611 34.8518187,3.82455718 34.7652126,4.00930704 C34.4928458,4.57542314 34.282605,5.06788483 34.282605,5.0924363 C34.282605,5.11698778 33.9732095,5.855578 33.5895509,6.71733479 C33.5128191,6.88960432 33.4325903,7.07087604 33.3517442,7.25419373 L33.2976412,7.37674651 C32.9913314,8.07237165 32.683993,8.77945415 32.5249753,9.1422022 C32.447215,9.3154947 32.3573175,9.51906735 32.2670085,9.72489056 L32.2126998,9.84846632 C32.0775449,10.1569965 31.946093,10.4577521 31.8568127,10.6562099 C31.6959435,11.0130246 31.5597601,11.3332168 31.5597601,11.3577683 C31.5597601,11.3823198 31.4235767,11.7025119 31.2627075,12.0593267 C31.1320784,12.3494433 30.7397797,13.2570295 30.3118923,14.2407253 L30.262315,14.3546851 C30.2291949,14.4307946 30.1960747,14.5071088 30.1627489,14.5836276 L30.0627713,14.8129793 C30.0461084,14.8512387 30.0292398,14.8892934 30.0127826,14.9273482 C29.9718453,15.021053 29.930908,15.1147578 29.8901764,15.2080534 L29.8416276,15.3199672 C29.3732144,16.3973678 28.9473841,17.3937486 28.8369151,17.635376 C28.3913362,18.6323705 26.7081754,22.5589698 24.814568,26.9903066 C24.7507963,27.1402752 24.6868189,27.2900392 24.6232529,27.439394 L24.559687,27.5885442 C23.5854203,29.8722406 22.6681367,32.0035133 22.4630388,32.4677408 C22.3739641,32.6696767 22.2669923,32.9147822 22.1589919,33.1647981 L22.0939859,33.3149713 C21.9536882,33.6402783 21.8170934,33.9606751 21.720613,34.1910498 C21.5348523,34.6342039 21.2501426,35.2864548 21.0892734,35.6434741 C20.9284042,36.0004935 20.7922208,36.3204811 20.7922208,36.3573083 C20.7922208,36.3943401 20.6436945,36.7388792 20.4704824,37.12045 C20.2972703,37.5022254 20.049795,38.0683416 19.9259545,38.3760534 C19.8021141,38.6837652 19.4061125,39.5700735 19.0596883,40.3454909 C19.0448768,40.3786354 19.0300653,40.4117799 19.0150481,40.445129 L18.9702022,40.5455854 C18.9327621,40.6294697 18.8949105,40.7139676 18.8572646,40.798261 L18.812213,40.8993313 C18.5425206,41.504116 18.288051,42.0792343 18.1932163,42.3149285 C18.0695816,42.6226403 17.8344492,43.1766852 17.6610314,43.5459804 C17.5425395,43.7984514 17.3312701,44.2817062 17.1185607,44.7784644 L17.0449147,44.950734 C16.9716801,45.1227989 16.8992684,45.2934316 16.8317939,45.4538346 C16.7994966,45.5307626 16.7667879,45.6085089 16.7338735,45.6864598 L16.6941705,45.7801646 C16.4503981,46.3565105 16.2097114,46.9187393 16.1263968,47.1155603 C16.0967738,47.1857366 16.0636537,47.26246 16.0305336,47.3391833 L15.9976192,47.4159067 C15.9324075,47.5679213 15.8715158,47.7113428 15.8416871,47.7925673 C15.7908755,47.9036627 15.6649779,48.1810944 15.5392859,48.4675282 L15.4903258,48.5798512 C15.4794229,48.6046073 15.4687257,48.629568 15.4580285,48.6541194 C15.0723127,49.5342898 14.504539,50.8590466 13.9277139,52.2232902 L13.8227992,52.4716693 C13.1754138,54.0051136 12.5294685,55.5569714 12.1289412,56.5564211 L11.2254405,58.8090189 L7.23785918,58.8090189 C4.81762114,58.807996 3.21468915,58.758893 2.90837938,58.6735766 C2.17829652,58.4767556 1.16329827,57.7749926 0.804531148,57.233428 C0.631113327,56.962748 0.371295167,56.3964273 0.247536969,55.9657535 C0.243072951,55.9512272 0.238711791,55.9367009 0.234412346,55.9223792 L0.221719725,55.8794141 C0.217584851,55.865297 0.213511693,55.8509753 0.20952082,55.8368582 L0.192055609,55.7728198 C0.026146388,55.1455296 0.00150172016,54.4337414 1.8189894e-12,50.8522949 L1.8189894e-12,50.4758389 C1.8189894e-12,40.3947985 0.85390277,34.6710311 3.42822141,27.4825637 C4.5049342,24.4915801 6.44811895,20.6633913 8.32917773,17.8815045 C12.7228406,11.3577683 18.0570329,6.70505906 24.8518024,3.45546667 C28.2923873,1.8060167 31.2007872,0.895156953 35.334632,0.168842467 C35.7861766,0.0917099144 41.9736751,0.0354461162 53.8969218,2.54218194e-05 Z M48.2932427,31.4026159 C51.0720421,31.2192982 54.319872,31.5939128 55.4461621,31.7784581 C56.0896389,31.8768686 56.9561109,32.0245866 57.3644553,32.0861699 C57.7727998,32.1477532 58.5277742,32.2954713 59.0352733,32.4061575 C59.0801192,32.4170011 59.1251708,32.4278446 59.1702224,32.4386882 L59.2601199,32.4601707 C59.6945902,32.5632869 60.1109575,32.6559688 60.2481695,32.6770421 L60.5205362,32.7386254 L60.557565,43.2257882 C60.5945937,56.9872995 60.6194852,55.8303112 60.2234837,56.6550362 C59.839825,57.4059021 59.1218793,58.0951848 58.2926418,58.4767556 C57.7937827,58.7130636 57.5456903,58.7451851 55.1503438,58.7474357 L54.9979089,58.7474357 C54.9460687,58.7474357 54.8934057,58.7474357 54.839714,58.7474357 L51.9559999,58.7474357 L51.6712902,57.984294 C51.2133684,56.7041391 50.5326572,55.8057597 49.319761,54.8085606 C47.9213098,53.6886041 45.9783308,53.0238729 44.0228031,53.0238729 C40.8543793,53.0238729 38.0821627,54.5869835 36.757769,57.1227418 C36.4856079,57.6520307 36.2628185,58.1813196 36.2628185,58.3042815 C36.2628185,58.4274481 36.1885553,58.5997176 36.0896064,58.6735766 C35.9879831,58.7543919 34.1472445,58.7854904 29.5435465,58.7873318 L28.6704916,58.7873318 C27.8865114,58.7869226 27.0317652,58.7861042 26.1017273,58.7844675 L16.2749231,58.7474357 L16.2378944,58.3904163 C16.1883171,58.0336015 16.2996089,57.4672808 16.6709247,56.2241578 C18.5398463,49.7495245 22.9335092,43.26282 28.3419646,38.9669256 C28.6427201,38.7310268 29.0210301,38.4447975 29.4151802,38.152635 L29.5032263,38.0875735 C29.5472493,38.0550428 29.5912724,38.0225121 29.6357068,37.9899814 L29.7241643,37.92492 C29.7535816,37.9032329 29.7832045,37.8817503 29.8126218,37.8600632 L29.9008736,37.7956156 C30.8128086,37.1306798 31.6764005,36.5297824 31.7453151,36.5297824 C31.7825495,36.5297824 32.1042879,36.3450326 32.4632607,36.1111798 C33.6636083,35.3480381 36.9062953,33.8585819 38.6143477,33.2924658 C40.6811672,32.5909074 43.0450393,32.0491381 45.2974138,31.7414263 C45.8049129,31.6675673 48.1200306,31.4271674 48.2932427,31.4026159 Z" id="形状" fill="#D5975A"></path>
            </g>
        </g>
    </g>
</svg>